<?xml version="1.0" encoding="utf-8"?>
<!-- Generator: Adobe Illustrator 24.1.0, SVG Export Plug-In . SVG Version: 6.00 Build 0)  -->
<svg version="1.1" id="Layer_1" xmlns="http://www.w3.org/2000/svg" xmlns:xlink="http://www.w3.org/1999/xlink" x="0px" y="0px"
	height="100%"
             width="100%" viewBox="0 0 192.6 54" style="enable-background:new 0 0 192.6 54;" xml:space="preserve">
<style type="text/css">
	.st0{display:none;fill:#00656F;}
	.st1{fill:#943895;}
	.st2{font-family:'OpenSans';}
	.st3{font-size:36.8621px;}
</style>
<!-- <rect x="-0.2" class="st0" width="193.3" height="54"/> -->
<path class="st1" d="M30.8,11l-1.5,3.1c4.3,2.7,7.2,7.5,7.3,12.9c0.1,7.9-5.8,14.7-13.6,15.7c-1.4,0.2-2.7,0.2-4,0l7.8-15.9
	c0.2-0.5-0.1-1-0.6-1h-6.6l6.2-13.4c0,0,0,0,0,0l1.4-3.1c-2.3-0.8-4.9-1.2-7.6-1.1C10.2,8.9,2.5,16.7,2,26.3
	c-0.4,7.3,3.4,13.7,9.2,17.2l1.4-3.1C8.4,37.7,5.5,33,5.4,27.5C5.2,19.7,11.1,12.8,19,11.8c1.4-0.2,2.7-0.2,4,0l-7.8,15.9
	c-0.2,0.5,0.1,1,0.6,1h6.6l-6.5,14l0,0l-1.1,2.4c2.3,0.8,4.9,1.2,7.6,1c9.6-0.6,17.3-8.4,17.8-18C40.3,20.9,36.5,14.5,30.8,11z"/>
<g>
	<text transform="matrix(1 0 0 1 50.4802 37.8189)" class="st1 st2 st3">optiwatt</text>
</g>
</svg>
